<?xml version="1.0" encoding="UTF-8"?>
<svg id="Layer_1" data-name="Layer 1" xmlns="http://www.w3.org/2000/svg" viewBox="0 0 627.05 395.83">
  <defs>
    <style>
      .cls-1 {
        fill: #231f20;
        stroke-width: 0px;
      }
    </style>
  </defs>
  <g>
    <path class="cls-1" d="m90.81,297.61l-.7-.37-.4.68c-.14.24-3.4,5.87-.96,10.29,1.66,3.01,5.49,4.62,11.38,4.79.31,0,.61.01.9.01,3.56,0,5.41-.7,5.79-2.17,1.03-3.94-11.99-11.13-16.01-13.24Zm9.37,13.73c-5.26-.15-8.61-1.47-9.97-3.93-1.54-2.78-.14-6.42.57-7.94,7.46,4,14.88,9.23,14.43,10.95-.03.11-.42,1.04-5.03.91Z"/>
    <path class="cls-1" d="m189.93,141.76c-1.05-1.21-2.79-1.72-4.63-1.47-.02,0-.03-.03-.04-.03l-.02.05c-.56.08-1.12.22-1.68.44-2.8,1.14-5.68,4.36-5.38,10,.31,5.67-1.82,6.22-4.29,6.86-3.13.81-5.4,1.95-3.73,8.49.74,2.9.37,3.65.17,3.84-.44.42-2.02-.04-3.28-.41-2.12-.62-4.53-1.33-6.29-.05-1.21.88-1.84,2.53-1.91,5.03-.05,1.88-.78,3.35-2.22,4.5-3.34,2.66-9.72,2.97-15.02,2.66.79-1.39,1.5-2.66,2.09-3.78.56-1.07,1.98-3.14,3.78-5.76,5.76-8.38,16.48-23.98,22.5-40.85,6.19-17.32,7.31-50.03-4.93-63.93-15.46-17.57-30.39-20.74-40.15-20.29-10.66.48-18.5,5.34-20.33,7.84-.42.58-.32,1.09-.22,1.34.46,1.18,2.45,1.58,6.82,2.47,12.72,2.58,42.25,8.56,48.04,43.35-8.34-4.23-48.82-23.89-68.3-16.65-4.39,1.63-7.44,4.55-9.06,8.66-3.35,8.52-3.8,13.88-1.41,16.87,3.42,4.28,12.04,2.97,22.95,1.31,5.46-.83,11.65-1.77,18.01-2.14,17.71-1.02,28.64,2.83,31.6,11.16,3.9,10.96-6.24,27.56-20.21,40.66-1.2-6.52-1.61-14.01,2.38-19.34,2.05-2.73,1.98-5.98-.19-9.14-3.56-5.19-12.39-9.51-16.88-8.24-1.57.44-2.49,1.56-2.57,3.16-.19,3.67,3.32,9.14,6.71,14.42,2.13,3.31,5.34,8.32,4.65,9.27-.01.02-.35.45-2.52-.12-1.75-.46-3.17-.28-4.24.52-2.25,1.71-2.32,5.74-2.38,9.64-.05,2.94-.1,6.28-1.31,6.85-.53.24-1.93.24-5.45-2.57-3.49-2.78-4.9-3.44-5.83-2.75-1.11.84-.33,2.71,1.37,6.82,1.09,2.62,2.47,5.95,3.35,9.29-2.36,1.81-4.76,3.69-7.17,5.66-4.4-.5-9.96-.68-12.09,1.23-.35.32-.61.68-.78,1.09-1.81-1.11-5.51-3.76-6.56-7.39-.59-2.03-.25-4.12,1.01-6.2,3.24-5.37,6.07-5.29,7.95-5.24,1.11.03,2.64.08,2.85-1.82.25-2.24-.09-4.93-1.79-5.75-.95-.46-2.08-.26-3.42.6,1.11-3.14,2.73-6.59,4.14-7.09.79-.28,1.21-.94,1.1-1.73-.18-1.34-2.01-2.95-4.34-3.11-2.06-.14-5.86.77-8.01,8.48-1.06,3.79-2.49,7.18-3.76,10.16-3.27,7.71-5.87,13.83.54,20.64-.52,2.28-2.51,12.28.94,17.78-13.48,16.4-22.59,36.71-18.24,61.85-4.62,1.38-10.9,3.23-14.4-1.62-5.34-7.42-8.63-10.95-12.84-10.95-1.45,0-2.79-1.29-4.19-2.66-1.6-1.56-3.25-3.16-5.45-3.25-.61-.03-1.5.23-2.33,1.57-2.92,4.7-3.91,20.94,4.53,36.61,4.28,7.94,8.63,10.12,13.11,10.12,2.67,0,5.38-.77,8.15-1.56,3.48-.99,7.08-2.01,10.89-1.58,5.73.66,9.34.06,11.6-.8,3.83,6.62,10.92,16.44,20.99,20.52,5.29,2.15,9.28,4.86,12.8,7.25,5.06,3.44,9.33,6.34,15.36,6.34,2.05,0,4.3-.34,6.85-1.1,11.5-3.44,19.64-8.77,21.23-13.91.65-2.12.22-4.2-1.26-6.03-1.9-2.34-2.22-5.59-2.59-9.36-.57-5.8-1.28-13.02-8.17-20.16-1.63-1.69-3.41-3.35-5.12-4.96-.75-.71-1.51-1.41-2.25-2.13,3-2.6,5.84-4.96,6.83-5.46,1.21-.61,2.98-3.86,6.73-11.15,2.64-5.14,7.07-13.73,8.53-14.1,2.83-.71,3.95-7.47,3.33-11.68-.6-4.09-2.48-4.61-3.57-4.57-1.95.09-3.77,1.57-5.69,3.13-3.2,2.6-5.3,4.03-7.5,2.02-1.41-1.29-3.02-1.53-4.55-.7-3.34,1.83-5.79,8.99-5.27,11.95.23,1.28-.63,3.34-1.54,5.51-1.21,2.89-2.69,6.45-2.45,10.04-1.13.42-3.18,1.23-5.1,2.23-3.45-6.94-4.39-15.83.23-28.88,5.02-14.19,10.07-25.07,14.36-33.34,4.25,3.02,9.58,5.59,14.31,5.59.76,0,1.51-.07,2.23-.21,3.99-.79,6.68-3.69,8-8.61,2.74-10.26,5.68-11.6,8.79-13.01,2.9-1.32,6.19-2.81,9.3-10.89,3.72-9.65,5.58-11.23,7.73-13.07,1.51-1.29,3.23-2.75,5.68-7.01,2.32-4.03,1.22-6.3.36-7.29Zm-40.84,41.43c-3.15,4.72-5.3,5.56-6.57,5.34-1.32-.22-2.34-1.61-3.06-3.11.35-.62.69-1.21,1.02-1.77.08-.13.15-.26.22-.39,2.63.18,5.57.24,8.4-.07Zm14.72-114.76c11.84,13.45,10.66,45.34,4.61,62.28-1.32,3.7-2.88,7.34-4.56,10.86-.31-.86-.63-1.64-.97-2.36,2.05-4.26,19.59-43.26-5.89-77.64,2.24,1.99,4.52,4.26,6.81,6.86Zm-2.17,68.5c1.74-4.99,16.99-52.46-18.43-84.52,2.5,1.14,5.09,2.58,7.75,4.41,29.85,32.89,14.53,72.52,10.95,80.53-.09-.15-.18-.29-.27-.43Zm-50.12-79.88c-2.32-.47-4.7-.95-5.45-1.37,1.29-1.56,5.19-4.09,10.68-5.65l-.11.58c.31.06,28.71,5.99,36.68,30.65-11.54-18.08-31.76-22.18-41.79-24.22Zm48.39,47.2l1.44.76-.23-1.61c-.9-6.34-2.55-11.76-4.72-16.44-4.38-26.47-30.02-35.41-37.43-37.46,1.87-.41,3.88-.69,6.01-.79,3.79-.17,8.38.23,13.49,1.87,37.45,29.84,24.69,76.27,21.93,84.81-.21-.21-.43-.4-.66-.57,3.09-6.08,2.63-9.85,1.45-19.35l-.22-1.77c-1.47-11.94-25.8-19.63-30.17-19.81-3.47-.14-30.41-5.38-38.98-7.06,20.77-7.29,67.61,17.17,68.09,17.42Zm-70.7-16.24c3.85.76,37.44,7.37,41.53,7.54,4.55.19,27.31,8.02,28.59,18.35l.22,1.78c1.16,9.35,1.57,12.75-1.26,18.35-.04-.01-.09-.03-.13-.04.87-2.79,1.79-9.43-3.14-20.69-.28-.64-.67-1.23-1.15-1.79-5.29-8.72-19.19-13.66-41.34-14.68-13.59-.63-26.26.49-30.23.89.33-.97.7-1.99,1.12-3.07,1.14-2.89,3.09-5.11,5.8-6.64Zm-7.47,11.44c5.45-.59,50.72-4.96,67,8.7-17.22-6.98-61.53-.42-67.66.53-.79-2.01-.57-5.07.66-9.23Zm39.58,8.98c-6.44.37-12.67,1.32-18.17,2.16-10.02,1.52-17.99,2.72-21.07-.37,4.34-.65,18.44-2.64,32.95-3.34,22.65-1.09,35.94,1.36,38.45,7.08,4.99,11.4,3.69,17.76,2.95,19.89-.95.12-1.82.55-2.58,1.11,1.84-5.6,2.05-10.54.73-14.26-2.26-6.35-9.87-13.63-33.26-12.27Zm11.26,60.24c.52,2.2.97,4.09,1.11,5.43.03.32-.08.78-.29,1.35-1.76-3.55-5.84-12.64-3.99-17.28.24-.61.59-1.11,1.03-1.5.33,4.33,1.33,8.56,2.15,12Zm1.04-34.3c1.79,2.6,1.86,5.03.23,7.21-.02.03-.04.07-.07.1-1.04-3.62-4.24-11.29-13.15-15,3.98.38,10.17,3.59,12.98,7.69Zm-16.42-5.94c.02-.44.15-.8.38-1.07,12.31,3.6,14.67,14.53,14.97,16.29-.42.8-.79,1.62-1.09,2.46-2.34-4.67-8.27-15.33-14.06-15.94-.16-.64-.24-1.23-.21-1.75Zm7.54,25.27c1.29.26,2.76.33,3.5-.69,1.3-1.79-.79-5.23-4.6-11.15-2.13-3.31-4.45-6.92-5.64-9.88,4.84,1.46,10.7,12.05,12.81,16.61-.41,1.99-.55,4.05-.5,6.12-1.14.62-1.97,1.57-2.48,2.84-2.39,6.01,3.46,17.58,4.65,19.8-1.79,3.33-5.43,8.58-9.93,14.58,2.36-6.6,5.42-17.28,2.73-22.25-3.04-5.6-1.21-13.57-.54-15.99Zm-7.58,16.73c2.15-1.02,2.2-4.4,2.27-8.33.05-3.34.11-7.12,1.72-8.34.49-.37,1.14-.5,1.96-.41-.76,2.73-2.61,11,.71,17.12,3.45,6.35-4.24,24.67-4.92,26.27-2.05,2.66-4.2,5.4-6.38,8.13-1.02-1.21-2.68-4.68,2.02-12.03,5.26-8.24,2.07-18.14.27-22.36.92.25,1.7.24,2.36-.07Zm-10.81-5.28c.5.23,1.52.85,3.61,2.51.91.73,1.74,1.31,2.51,1.77.81,1.59,6.47,13.44.66,22.53-5.49,8.6-3.03,12.79-1.67,14.24-1.61,2.01-3.24,4.02-4.84,5.98-1.09-2.09-3.16-7.76-.09-16.81.75-.61,1.52-1.23,2.32-1.84,6.9-5.26,2.09-16.82-.78-23.73-.73-1.76-1.54-3.72-1.73-4.64Zm-6.6,55.33c-.47.56-.93,1.11-1.39,1.65-3.83-7.08-3.34-12.8-.06-18.02-1.1,6.39.92,14.42,1.45,16.37Zm2.27-21.02s.06-.06.09-.09c.14-.15.29-.3.45-.44h0c.53-.53,1.08-1.05,1.66-1.57-2.36,9.11.26,14.55,1.28,16.21-1.51,1.84-2.99,3.63-4.42,5.34-.97-4.03-3.12-14.94.95-19.45Zm-1.12-12.57c-1.78,1.49-3.55,3.02-5.31,4.6-.75-1.19-1.28-2.67-1.38-4.55,1.84-.3,4.28-.25,6.69-.05Zm-13.79.93c1.57,1.18,2.89,1.88,3.01,1.94l1.34.67-.13-1.49c-.04-.45.09-.79.42-1.09.2-.18.5-.3.79-.43.16,2.17.82,3.88,1.75,5.24-1.87,1.71-3.72,3.48-5.53,5.3-.78-.89-1.44-1.87-1.89-2.95-.93-2.24-.81-4.66.24-7.19Zm-6.55-18.55c1.29-3.03,2.75-6.47,3.83-10.36,1.3-4.67,3.48-7.28,6.02-7.28.18,0,.37.01.55.04,1.61.23,2.53,1.34,2.51,1.58-3.18,1.12-5.59,9.28-6.04,10.9l-.85,3.05,2.24-2.24c2.49-2.49,3.51-2.28,3.76-2.16.71.34,1.07,2.09.85,4.06-.02.22-.07.29-.07.29-.12.08-.69.07-1.08.06-2.12-.06-5.68-.16-9.42,6.04-1.51,2.5-1.91,5.03-1.18,7.52.71,2.45,2.4,4.44,4.07,5.94-1.43,3.13-1.61,6.14-.44,8.95.54,1.3,1.34,2.46,2.25,3.49-1.23,1.27-2.44,2.56-3.63,3.88-1.61-3.63-3.08-8.52-2.64-13.91l.09-.37-.33-.33c-6.04-6.16-3.85-11.33-.52-19.16Zm-.35,27.71c.61,2.85,1.56,5.35,2.53,7.43-.37.43-.75.86-1.11,1.3-1.28-2.39-1.55-5.68-1.42-8.72Zm-30.27,74.11c4.06,1.91,9.16.48,12.63-.55.45,2.32,1.02,4.67,1.7,7.07-4.36,2.17-9.31,3.78-12.09,2.1-1.99-1.2-2.7-4.15-2.24-8.62Zm-3.42-2.84c.56.77,1.18,1.39,1.84,1.9-.72,5.62.25,9.35,2.96,10.99,1.08.65,2.36.93,3.75.93,3.03,0,6.58-1.31,9.68-2.83.4,1.31.84,2.64,1.31,3.98-6.67,1.94-14.59,3.35-19.14,1.01-1.87-.96-2.99-2.47-3.42-4.62-1.21-6.07-1.93-10.56-2.45-13.83-.37-2.31-.64-3.99-.93-5.28,1.73,1.61,3.74,4.08,6.4,7.76Zm-16.93-12.67c.08-.12.26-.23.53-.31,1.45,1.4,2.98,2.72,4.92,2.72.9,0,1.78.24,2.71.73.64.88,1.02,3.18,1.68,7.31.52,3.29,1.24,7.8,2.46,13.9.53,2.64,1.97,4.58,4.29,5.77,1.93.99,4.36,1.39,7.02,1.39,4.3,0,9.16-1.05,13.47-2.3.42,1.13.86,2.26,1.34,3.4-9.9,3.22-23.34,6.48-29.34,2.87-1.79-1.08-2.75-2.7-2.93-4.96-.63-7.76-2.69-14.76-4.36-20.38-1.41-4.77-2.63-8.89-1.78-10.14Zm30.34,38.34c-4.14-.48-7.9.59-11.53,1.63-7.34,2.09-13.14,3.74-19.34-7.75-8.02-14.89-7.25-30.66-4.59-34.94.36-.58.67-.79.85-.79h0c1.25.05,2.38.92,3.52,1.99-.23.17-.47.33-.64.58-1.29,1.9-.16,5.74,1.56,11.55,1.64,5.55,3.68,12.45,4.29,20.04.23,2.79,1.48,4.89,3.73,6.25,2.13,1.28,5.03,1.8,8.34,1.8,6.95,0,15.65-2.28,22.55-4.54.42.89,1.03,2.12,1.83,3.58-1.99.71-5.26,1.22-10.59.6Zm75.41-14.44c6.49,6.72,7.14,13.34,7.71,19.17.4,4.03.74,7.51,2.95,10.24,1.15,1.41,1.46,2.88.96,4.49-1.4,4.55-9.3,9.58-20.11,12.81-9.31,2.78-14.13-.49-20.8-5.03-3.59-2.44-7.65-5.2-13.11-7.41-11.48-4.66-19.13-17.59-22.06-23.32.56-2.32,4.75-18.14,15.48-23.86,5.07-2.7,10.93-2.77,17.4-.19l.8.32.29-.81c.02-.06,2.19-5.96,6.67-6.57,2.49-.33,5.35,1.07,8.43,4.09,2.96,4.28,6.73,7.81,10.32,11.18,1.78,1.67,3.46,3.24,5.06,4.9Zm16.5-53.22c.7.67,1.01,2.24,1.1,2.82.63,4.25-.71,9.48-2.09,9.83-2.05.51-5,5.99-9.61,14.95-2.27,4.42-5.1,9.91-6,10.43-1.18.59-4.24,3.13-7.29,5.78-.61-.6-1.21-1.2-1.8-1.81-.14-.2-.27-.38-.41-.57,4.78-3.34,10.21-8.55,13.03-16.16,2.39-6.45,5.12-9.49,7.54-12.17,2.96-3.29,5.3-5.98,5.53-13.1Zm-11.35,5.75c2.11-.25,4.13-1.89,5.88-3.31,1.29-1.05,2.61-2.1,3.81-2.54-.2,6.54-2.27,8.92-5.11,12.08-2.39,2.66-5.36,5.96-7.86,12.71-2.66,7.17-7.89,12.16-12.49,15.37-.32-.42-.65-.83-.97-1.22,5.8-4.47,12.48-11.72,13.34-21.85.99-.94,4.04-4.48,3.39-11.25Zm-12.49,14.83c1.05-2.51,1.95-4.68,1.64-6.44-.38-2.17,1.66-8.68,4.44-10.21.08-.05.16-.01.24-.05-.15,4.28-.74,8.19-1.23,8.63-1.46-.12-1.79,1.84-2.42,5.36-.74,4.15-1.84,10.17-4.94,11.54-.07-3.04,1.13-6.1,2.27-8.82Zm-2.81,10.75l.28-.1c4.65-1,5.98-8.21,6.85-13.07.28-1.55.61-3.45.92-3.99.25-.03.54-.13.83-.4,1.45-1.32,1.82-6.86,1.92-9.76.24.12.47.17.71.39.7.64,1.41.98,2.11,1.18.81,7.14-2.87,10.24-3.03,10.37l-.29.23-.03.37c-.69,9.63-7.2,16.66-12.82,21-.51-.57-1.02-1.11-1.52-1.61-.5-.73-.96-1.47-1.4-2.24,1.64-.85,3.61-1.7,5.48-2.36Zm-7.6-28.55c-4.81,13.59-3.7,22.98-.08,30.24-2.16-1.34-4.23-1.88-6.2-1.62-4.41.6-6.85,5.03-7.69,6.87-6.65-2.46-12.71-2.27-18.03.57-9.81,5.23-14.32,17.85-15.81,23.02-.14-.3-.21-.48-.22-.5-21.32-51.11,11.27-83.62,40.73-106.13.86,4.28.63,8.37-2.45,10.71-10.41,7.95-18.87,17.3-10.34,31.8l.59,1.01.76-.89c3.8-4.48,37.1-43.94,36.48-50.2-.14-1.44-.61-3.39-1.14-5.64-.32-1.34-.67-2.81-.99-4.35,9.24-8.34,15.48-16.93,18.95-24.61l.04.02c.65-1.15,2.81-4.08,5.02-3.86.08,0,.17.02.26.04l.03.02s0,0,0-.01c1.42.33,3.39,2.11,5.31,8.16-5.69,11.43-12.52,21.38-16.71,27.48-1.91,2.77-3.28,4.78-3.89,5.93-.84,1.6-1.93,3.51-3.2,5.72-4.94,8.62-13.22,23.05-21.42,46.22Zm38.86-36.45c-1.11,4.13-3.27,6.61-6.42,7.34-4.61,1.08-10.85-1.71-15.72-5.2.55-1.04,1.08-2.04,1.6-3,2.38,2.64,6.1,6.11,9.19,6.11.1,0,.2,0,.3-.01.93-.07,2.24-.53,3.18-2.27,2.99-5.59,12.07-16.79,16.15-16.82.23,0,.41.07.58.15-3.06,1.45-6.17,3.61-8.86,13.7Zm10.46-14.45c-.57-.63-1.27-1.06-2.17-1.06h-.03c-5.31.04-14.87,12.58-17.6,17.7-.47.88-1.07,1.34-1.84,1.4-2.47.21-6.11-3.25-8.52-5.99.59-1.07,1.17-2.11,1.71-3.06.88,1.46,2.1,2.76,3.75,3.04.23.04.46.06.69.06,2.56,0,5.3-2.44,8.34-7.35,2.49-.46,4.75-1.27,6.4-2.59,1.82-1.45,2.78-3.39,2.85-5.75.05-1.92.47-3.18,1.22-3.73,1.1-.79,3.09-.21,4.84.3,1.94.57,3.78,1.11,4.91.01.93-.9,1.02-2.58.28-5.45-1.34-5.25.07-5.81,2.29-6.4-1.43,4.54-.09,8.38.42,9.55-2.57,6.5-5.01,8.11-7.55,9.31Zm14.46-22.07c-1.64,1.6-3.36,4.06-5.93,10.37-.45-1.82-.72-4.68.59-7.77,2.08-.81,4.1-2.54,3.8-8.02-.12-2.26.31-3.94.95-5.18.16.11.36.15.49.35,1.41,2.12.58,7.93.09,10.26Zm2.85-2.59c-.29.28-.58.55-.85.8.41-2.77.76-7.17-.71-9.38-.24-.37-.53-.66-.86-.88.91-1.01,1.88-1.53,2.37-1.73.24-.1.48-.13.72-.2.63,1.14.35,6.17-.67,11.39Zm3.89-5.27c-.64,1.12-1.22,1.99-1.76,2.75.52-3.28.83-6.93.18-9.04.87.07,1.64.37,2.13.93.97,1.12.78,3.07-.54,5.37Z"/>
  </g>
  <g>
    <path class="cls-1" d="m211.35,126.74l-1.03-.06h-.97l-2.06-.11-1.2-.34-.29-.63v-2.8l-.06-1.2v-2.34l.06-2.06,1.03-.69h1.26l1.37-.06,1.71-.11,1.03-.23,1.32-1.2.06-1.83-.17-1.03-.63-2.12-.69-2.17-.34-1.14-.34-1.09-.29-1.09-.63-2.17-.29-1.09-.34-1.2-.06-1.14-.06-1.03.06-1.03.46-2.06.34-1.03.46-.91,1.09-1.6,1.6-1.54,2.23-1.49,2.34-.86,3.54-.91h1.03l1.32-.11,1.6-.11,1.03-.06h.97l1.26.29.46,1.31.11,1.09v1.09l-.23,2.34.06,1.26.11,1.89-.51,1.14-1.26.17-1.37.17-1.71.11-.91.34-1.2.91-.46.97.11,1.66.29,1.09.34,1.14.4,1.09.8,2.12.51,1.6.57,1.6.57,2.17.29,1.31.34,1.49.11,1.26-.06,1.26-.46,2.57-.97,2.4-.74,1.03-.8.91-.91.8-2.12,1.26-1.14.4-1.26.29-2.46.06-2.29.23-1.94-.17Zm.63,3.43h-1.94l-.91-.57.17-.8.46-.11,1.37.06,3.49.06,2.46-.23,2.34-.34.97-.23,1.89-.74.86-.46,1.55-1.26.74-.8,1.37-1.89.91-2.12.57-2.06.29-2.12.06-1.14-.23-1.31-.06-1.26-.23-1.09-.29-1.03-.74-2.06-.29-1.03-.63-2.06-.34-.97-.74-2.17-.23-1.2.34-1.83,1.14-1.14,1.94-.11h1.03l1.49-.06.57-.97.11-1.2-.11-.57.11-.86-.06-.97-.06-.63.06-1.2-.11-1.94.17-1.37.52-.29.8.91.11,2.34v1.26l-.06,1.49v1.26l.06.97-.11,1.71-.29.91-.29.51-1.6.06h-1.26l-2.11.06-.86.69-.06.74.46,1.6.69,2.34,1.43,4.35.69,2.34.23,1.94.17,1.66-.06,1.03v1.03l-.34,2.17-.34,1.2-.63,2-1.03,1.71-.63.86-1.66,1.89-2.12,1.37-2.06.8-1.6.34-1.77.46-2,.11h-1.6l-2.17-.06Z"/>
    <path class="cls-1" d="m258.92,126.69h-2.12l-1.32-.46-.57-1.31-.4-1.03-.91-2.23-.63-1.6-1.54-.46h-1.32l-1.77.17h-2.63l-2.69.06h-1.03l-1.2.23-.34,1.14-.4.91-.69,1.89-.4.97-.69,1.14-1.14.11-.91.17-.97-.11-.4-.34.17-1.09.57-1.89.34-.97.34-1.03.74-2,.69-1.83.69-2.12.4-1.2.46-1.2.74-2.34.4-1.14.29-1.14.4-1.14.57-1.89.74-1.89.4-1.14.34-1.14.4-1.2.34-1.14.8-2.23,1.26-3.32.74-2.17.74-1.66.57-1.37.74-.91,1.14.29.8,1.49.86,1.71.97,2.4.51,1.14.51,1.2,1.09,2.17.51,1.09,1.09,2.06.46,1.09.86,1.94.69,1.77.86,1.83.51,1.03.63,1.71.8,1.72.51,1.09.86,2.06.4.91.86,1.83.91,1.77.29,1.26.8,1.37.46,1.2.86,1.83v1.09l-.4.57-1.03.11-1.49.06-.86.23-1.66-.23-1.43.23-1.2-.11Zm-23.56,2.52l-.17-.69,1.26-.57,2-.11,1.31-.34.57-1.31.74-2.29.46-1.14.51-1.49.51-.17.52.46.17.46-.4,1.26-.4,1.09-.34,1.14-.8,2.17-1.14,1.43-1.89.23-1.89.17-1.03-.29Zm7.6-12.81l1.71-.06,4.46-.06,1.14-.11,1.09-.4-.51-1.2-.46-1.03-.8-1.94-.74-1.89-.46-.97-.69-1.66-.86-1.83-.57-1.26-.57.86-.34,1.03-.4,1.09-.69,2.06-.29,1.09-1.37,4.12-.29,1.09-.17,1.09h.8Zm1.14-2.12l.34-1.43.69-2.29.69-1.94.91-.46.29.91-.46,1.83-.34,1.03-.28,1.09-.46,1.49-.86.4-.51-.63Zm13.95,15.5l-.17-.51.23-.57,1.14-.23,1.66-.06h1.71l6.46-.34.97-.51-.34-1.2-.34-.97-1.37-2.92-.8-2.17-.51-1.14-.86-2.06-.4-.86-.91-1.83-.86-2-.4-1.03-.91-2.12-.97-2.12-.91-2.06-.52-.97-.46-1.03-.97-1.94-.91-1.94-1.43-3.09-.91-2.17-.52-1.14-.97-2.17-.51-1.09-.57-1.54.4-.63.91.34.74,1.6.52,1.14.46,1.09,1.03,2.23,1.54,3.43.91,1.89.69,1.49.46,1.2.8,1.54.57,1.14.97,2.29.57,1.14.52,1.14.69,1.43.57,1.37.4,1.09.46,1.03.51,1.09.91,1.94.4.97.46.91.8,2,.74,1.77.86,1.83.91,2.17.52,1.6-.8,1.09-1.94.23h-2.29l-1.77.23h-2.69l-3.14.23-1.32-.23Z"/>
    <path class="cls-1" d="m278.42,125.89l-.34-1.72v-26.3l.06-1.66.11-.8-.11-.97.11-2.12.06-1.2v-1.26l.06-1.89,1.14-.86,4.29-.11,2.35-.23h2.97l2.17.11,2.23.17,2.34.4,2.17.46,1.03.34,1.03.4,1.03.46.91.57,1.71,1.37.74.8.57.91.51.97.4,1.03.46,2.06.11,1.09.06,2.34-.17,1.2-.29,1.2-1.03,2.17-.57,1.03-.74.97-.74.86-.91.8-1.89,1.31-.97.46-1.09.34-1.77.51-.69.34.74.91.69.8,1.49,1.6,6.98,7.43,1.77,1.77.8,1.43-1.31.57-1.09.06h-1.14l-1.54-.4-1.2-1.14-2.34-2.46-.74-.86-.8-.8-1.54-1.77-2.46-2.63-.86-.86-1.26-1.31-.63-.63-.28.91v1.03l-.06,1.03v7.72l-.17,1.72-.69.4h-3.83l-1.14.11-1.71.11-2.57.06-1.32.06-1.09-.46Zm2.63,3.54l-.11-.57.46-.46.57-.17.52.11,1.66.06,2.06-.23h1.66l1.43.06,1.66-.11,1.49-.06.4-1.26.06-1.2v-1.14l-.06-2.23.06-1.14-.06-1.09-.06-1.37.86-.4.57.74.06,1.49.06,1.2-.06,2.06v1.66l.11,1.31-.23,1.89-1.66.97h-2.06l-2.29.17h-2l-1.89.06h-2l-1.2-.34Zm12.69-21.56l2.29-.34,1.2-.34,1.14-.51,1.03-.63,1.2-.86.8-1.14.57-1.03.46-1.14.29-1.14.17-1.89v-1.2l-.46-1.6-.51-1.09-1.54-1.89-.97-.69-1.09-.63-2.17-.63-.97-.11h-1.03l-1.94.06-.91.4-.06,1.54v4.46l-.11,1.26-.11,1.09.06,1.2v1.37l-.06,1.83v2.23l.28,1.43,1.49.06.97-.06Zm-.57-3.83l-.06-1.83v-8.41l.23-.63.51-.11.4.29.23.34v7.09l.11,2.57-.63,1.31-.8-.63Zm12.18,24.3l-.06-.57.17-.51.8-.11,2.06-.06,1.77-.23,1.03-.06.11-.74-2.12-2.12-2.46-2.63-1.43-1.37-1.14-1.09-1.26-1.43-.74-.8-2.29-2.29-.74-1.26.52-1.2,2.12-.91,1.54-.97.91-.8,1.2-1.14.69-.86.63-.8.91-1.72.52-1.26.57-2.4v-3.49l-.17-1.14-.46-1.83-.74-1.43-.8-1.6-.57-.86-1.03-1.43.4-.86,1.49.97.74,1.03.69,1.03,1.03,2.29.34,1.49.34,1.14.11.97.06,1.66.23.91-.23,1.49-.52,2.12-.28.97-.4.97-.4.91-.69,1.31-1.14,1.14-1.54,1.6-1.43,1.09-.8.51-1.49.74-.17.97,1.2,1.2.69.74,1.54,1.54,2.17,2.29,3.03,2.92,1.54,1.71.86.91.8.91,1.09,1.09-.06.74-.86.4h-1.6l-1.09.11-1.14.06-1.09.11-1.77.06-.86.06-.34-.23Z"/>
    <path class="cls-1" d="m342.23,126.69h-2.12l-1.32-.46-.57-1.31-.4-1.03-.91-2.23-.63-1.6-1.54-.46h-1.32l-1.77.17h-2.63l-2.69.06h-1.03l-1.2.23-.34,1.14-.4.91-.69,1.89-.4.97-.69,1.14-1.14.11-.91.17-.97-.11-.4-.34.17-1.09.57-1.89.34-.97.34-1.03.74-2,.69-1.83.69-2.12.4-1.2.46-1.2.74-2.34.4-1.14.29-1.14.4-1.14.57-1.89.74-1.89.4-1.14.34-1.14.4-1.2.34-1.14.8-2.23,1.26-3.32.74-2.17.74-1.66.57-1.37.74-.91,1.14.29.8,1.49.86,1.71.97,2.4.51,1.14.52,1.2,1.09,2.17.51,1.09,1.09,2.06.46,1.09.86,1.94.69,1.77.86,1.83.51,1.03.63,1.71.8,1.72.51,1.09.86,2.06.4.91.86,1.83.91,1.77.29,1.26.8,1.37.46,1.2.86,1.83v1.09l-.4.57-1.03.11-1.49.06-.86.23-1.66-.23-1.43.23-1.2-.11Zm-23.56,2.52l-.17-.69,1.26-.57,2-.11,1.32-.34.57-1.31.74-2.29.46-1.14.51-1.49.52-.17.51.46.17.46-.4,1.26-.4,1.09-.34,1.14-.8,2.17-1.14,1.43-1.89.23-1.89.17-1.03-.29Zm7.6-12.81l1.71-.06,4.46-.06,1.14-.11,1.09-.4-.51-1.2-.46-1.03-.8-1.94-.74-1.89-.46-.97-.69-1.66-.86-1.83-.57-1.26-.57.86-.34,1.03-.4,1.09-.69,2.06-.29,1.09-1.37,4.12-.29,1.09-.17,1.09h.8Zm1.14-2.12l.34-1.43.69-2.29.69-1.94.91-.46.29.91-.46,1.83-.34,1.03-.29,1.09-.46,1.49-.86.4-.51-.63Zm13.95,15.5l-.17-.51.23-.57,1.14-.23,1.66-.06h1.71l6.46-.34.97-.51-.34-1.2-.34-.97-1.37-2.92-.8-2.17-.51-1.14-.86-2.06-.4-.86-.91-1.83-.86-2-.4-1.03-.91-2.12-.97-2.12-.91-2.06-.51-.97-.46-1.03-.97-1.94-.91-1.94-1.43-3.09-.91-2.17-.52-1.14-.97-2.17-.51-1.09-.57-1.54.4-.63.91.34.74,1.6.52,1.14.46,1.09,1.03,2.23,1.55,3.43.91,1.89.69,1.49.46,1.2.8,1.54.57,1.14.97,2.29.57,1.14.52,1.14.69,1.43.57,1.37.4,1.09.46,1.03.52,1.09.91,1.94.4.97.46.91.8,2,.74,1.77.86,1.83.91,2.17.52,1.6-.8,1.09-1.94.23h-2.29l-1.77.23h-2.69l-3.14.23-1.32-.23Z"/>
    <path class="cls-1" d="m383.01,126l-1.72-.29-.57-1.09v-2.86l-.06-2.12-.11-1.77-.11-1.54.06-1.6v-1.43l-1.26-.74h-4.86l-1.32.46-.06,1.54v9.38l-.52,1.71-1.89.29-1.2.06-2.46-.06-2.06.06-1.43-.11h-.74l-.74-.11-.52-.57.11-1.43v-1.26l.06-2.12-.11-1.66-.06-1.72-.06-1.94v-3.55l.11-2-.06-1.54.06-1.54.11-1.14-.23-1.37.11-1.66v-1.66l.06-1.6.06-2.23-.17-2.46.17-2.23v-2.23l.06-1.77,1.6-.57,2.4-.06,1.31-.06,1.26.11,1.03-.06,1.6-.06.63-.17.8.06.74.63v2.23l.11,1.66-.06,1.77-.06,1.43.17,1.32-.23,1.89.06,2.12v1.66l.11,1.94v3.83l.17.34,1.32.11h4.69l1.26-.29.06-1.37.06-2.29v-2.29l-.06-2.17v-1.43l-.11-.63.06-1.37.06-2.12.06-2.23v-2.12l.06-.91.34-1.2.69-.29h4.92l1.77-.06h1.09l.74.11.97.4.46,1.6v.91l.06,2.23.06,1.43v.69l.06,1.2.06,1.43-.06,1.43-.06,1.83v2.29l-.06,2.29v6.8l-.06,2.34v8.23l-.11,2.06-.63,1.09-1.49.11-2.17.11h-1.09l-3.26-.06Zm-18.53,2.74l-.34-.63.34-.46,1.54-.06h5.6l1.66-.06.97-.06.8-.29.06-1.54v-3.14l.23-.91v-5.55l-.06-1.6.29-.8,1.43-.29.97.06,1.03.29.06.69-.63.57-.97-.06-.74.91v1.37l.11,1.43-.06,1.43-.11,1.37-.06,1.31.06,1.49-.06,1.37-.11,1.37-.57,1.26-.86.63-1.37.11h-7.72l-1.49-.23Zm10.64-22.41l-.06-1.26v-2.17l.06-1.14v-10.63l.63-1.37.8.97.11,1.77v1.26l-.17.97.11.86.06.91v1.2l-.17,1.03.06,1.49.06.91-.11,2v2l-.23,1.31-.57.23-.57-.34Zm7.6,22.64l.06-.57.34-.46,1.26-.06,2.23-.06h4.69l.97-.11,1.26-.74.06-1.54.06-1.72.23-1.2v-2.74l.06-1.26v-3.6l.11-1.54-.11-.97v-2.69l.17-1.71.06-1.83v-12.58l-.06-2.12.11-1.54h.86l.46,1.71.06,2.46v4.92l.06,2.46-.11,2.46.06,2.52-.06,2.4-.06,1.77.06,1.83v1.14l-.06,1.14v4.06l-.17,1.37.06,1.2-.17,1.72-.06,1.09-.11,1.14-.06,1.09-.17,1.54-.23.4-1.09.51-.97.29-2.23.11h-6.75l-.8-.29Z"/>
    <path class="cls-1" d="m407.94,106.67l.74-1.54.52-.91.97-1.83.46-.97.46-1.2-.8-.29-3.2.06-1.14-.29-.51-.91v-6.69l-.06-2.23-.17-2.12.23-1.14,1.2-.17,1.09-.11,1.09-.06h8.12l2.17.8.63,2.17.06,1.09v1.14l-.06,1.09-.17,2.34-.23,1.26-.29,1.2-.63,2.34-.4.97-.57.97-.63.91-.74.86-1.66,1.6-.97.74-1.03.69-1.09.57-1.83.74h-1.32l-.23-1.09Zm-2.06-4.8l.8-1.09.97-.06,1.31.69-.4.74-1.2.17-1.49-.46Zm2.4,7.72l1.54-.57,1.77-.86,1.71-1.14,3.37-2.52.8-.86.74-.97.86-1.49.69-1.37.51-1.94.23-.91.23-1.2.11-1.37.11-1.2.06-1.2v-1.2l.06-1.43.57-.63.69.63.06,1.49v2.12l-.11,2.34-.46,2.34-.23,1.03-.51,1.94-.63,1.03-.57,1.43-.86.97-.91,1.09-.91.86-.97.8-2.92,2.06-2.06,1.2-1.2.46-1.77.06v-.97Z"/>
    <path class="cls-1" d="m432.81,126.74l-1.03-.06h-.97l-2.06-.11-1.2-.34-.29-.63v-2.8l-.06-1.2v-2.34l.06-2.06,1.03-.69h1.26l1.37-.06,1.71-.11,1.03-.23,1.32-1.2.06-1.83-.17-1.03-.63-2.12-.69-2.17-.34-1.14-.34-1.09-.29-1.09-.63-2.17-.29-1.09-.34-1.2-.06-1.14-.06-1.03.06-1.03.46-2.06.34-1.03.46-.91,1.09-1.6,1.6-1.54,2.23-1.49,2.34-.86,3.54-.91h1.03l1.32-.11,1.6-.11,1.03-.06h.97l1.26.29.46,1.31.11,1.09v1.09l-.23,2.34.06,1.26.11,1.89-.51,1.14-1.26.17-1.37.17-1.71.11-.91.34-1.2.91-.46.97.11,1.66.29,1.09.34,1.14.4,1.09.8,2.12.51,1.6.57,1.6.57,2.17.29,1.31.34,1.49.11,1.26-.06,1.26-.46,2.57-.97,2.4-.74,1.03-.8.91-.91.8-2.12,1.26-1.14.4-1.26.29-2.46.06-2.29.23-1.94-.17Zm.63,3.43h-1.94l-.91-.57.17-.8.46-.11,1.37.06,3.49.06,2.46-.23,2.34-.34.97-.23,1.89-.74.86-.46,1.55-1.26.74-.8,1.37-1.89.91-2.12.57-2.06.29-2.12.06-1.14-.23-1.31-.06-1.26-.23-1.09-.29-1.03-.74-2.06-.29-1.03-.63-2.06-.34-.97-.74-2.17-.23-1.2.34-1.83,1.14-1.14,1.94-.11h1.03l1.49-.06.57-.97.11-1.2-.11-.57.11-.86-.06-.97-.06-.63.06-1.2-.11-1.94.17-1.37.52-.29.8.91.11,2.34v1.26l-.06,1.49v1.26l.06.97-.11,1.71-.29.91-.29.51-1.6.06h-1.26l-2.11.06-.86.69-.06.74.46,1.6.69,2.34,1.43,4.35.69,2.34.23,1.94.17,1.66-.06,1.03v1.03l-.34,2.17-.34,1.2-.63,2-1.03,1.71-.63.86-1.66,1.89-2.12,1.37-2.06.8-1.6.34-1.77.46-2,.11h-1.6l-2.17-.06Z"/>
    <path class="cls-1" d="m211.23,206.43l-1.09-.51-.11-1.09v-3.09l-.06-1.26-.17-1.83.11-1.31-.11-2,.06-2.57v-2.06l-.06-1.71v-1.72l-.06-1.66.06-1.94v-6.58l.11-1.89-.06-1.26-.06-1.03v-1.03l.06-1.03.06-1.6.8-1.26.63-.23.97.06,1.94-.06,1.14.06h1.71l1.2.06h2.92l1.14-.11.86.11,1.2-.06h4l2.06.06,1.6.11.8,1.43-.4,1.94-1.66.4-2.17-.11-2.17.11h-2.17l-1.03,1.6-.06,2.34v1.03l-.17,2.23-.06,1.09v4.52l.06,2.06.06,1.37,1.37.4h4.86l1.6.4.51.8.06,1.14-.52,1.6-1.94.4-2-.23-3.66.23-.34.23-.06,1.49v3.6l-.06,1.2v4.69l-.34,1.71-.97.69-1.2.11h-7.09l-2.12-.06Zm3.09,3.49l-1.03-.63.11-.57.74-.34,1.43.11,1.09.11,1.2-.23,1.6.06,1.2.11h1.2l1.6-.11.97-.06,1.09-.23.11-1.09v-.91l-.06-1.43-.11-.74.17-1.31v-5.03l-.06-1.43.17-1.09.91-.74h2.8l1.37-.06h.91l.63-.11.57-1.26.06-1.09.11-1.09.34-1.31.74.23.29,1.6v2.06l-.17,1.03-1.14,1.31-1.89.06h-3.72l-.57.63.06,1.54-.06,1.77v6.63l.06,1.83-.4,1.09-1.2.63-2.86.11h-6.46l-1.83-.06Zm11.44-23.84l-.57-.69.06-1.6.11-2.29v-4.4l-.06-1.72.06-.91.17-.46,1.2-.46,1.66-.11h.97l.86.06h1.03l1.26-.11h1.32l.8-.29v-1.26l.06-1.37.23-.97.69-.34.52,1.37v2.12l-.17,1.43-.51.57-.8.17h-1.37l-1.43.23-1.55-.06-3.2.06-.29.34v1.54l-.06,1.2v6.4l-.11.91-.06.63-.23.11-.57-.11Z"/>
    <path class="cls-1" d="m246.17,206.31l-.46-.97v-1.49l-.11-3.32-.11-1.89v-2.23l.11-1.49v-2.34l-.11-1.03.17-.86-.11-.63.17-1.14v-9.83l.06-1.14v-3.03l.17-.86v-1.32l.06-1.26-.06-1.31-.11-1.31.23-.57.63-.4.86.17,2-.17h1.14l1.71.06.97-.06,1.49.17,2.12.06,1.26.69v1.43l.06,1.43-.06,1.49.06,1.49-.06,1.6-.06,1.72.11,1.77-.11,1.2.06,1.14-.06,1.6.06,1.89-.06,1.43.06,1.2-.11,1.83v5.6l.06,1.77.06,1.6-.06,1.26.11.69-.11,1.09.11,1.37-.11.74.17.63-.11.8-.17.74-1.26.23h-8.01l-1.71.06-.91-.29Zm3.83,3.83l-1.54-.74.34-.69,1.03-.06,2.92.06h6.46l1.31-.34.06-1.54.17-1.72-.17-1.43-.06-1.77.06-1.89.11-2,.06-2.06v-23.79l.29-.97.63-.06.46.46v1.37l.06,1.14v16.81l.06,2.17-.06,1.14-.06,2.17v1.14l.06,2.17-.06,1.03v5.37l-.06,2.17-.74,1.37-.91.4h-1.89l-2.17.23-1.54-.11-1.2.06h-1.26l-.8.06-1.54-.17Z"/>
    <path class="cls-1" d="m274.82,207.23l-1.03-.06h-.97l-2.06-.11-1.2-.34-.29-.63v-2.8l-.06-1.2v-2.34l.06-2.06,1.03-.69h1.26l1.37-.06,1.71-.11,1.03-.23,1.32-1.2.06-1.83-.17-1.03-.63-2.12-.69-2.17-.34-1.14-.34-1.09-.29-1.09-.63-2.17-.29-1.09-.34-1.2-.06-1.14-.06-1.03.06-1.03.46-2.06.34-1.03.46-.91,1.09-1.6,1.6-1.54,2.23-1.49,2.34-.86,3.54-.91h1.03l1.32-.11,1.6-.11,1.03-.06h.97l1.26.29.46,1.31.11,1.09v1.09l-.23,2.34.06,1.26.11,1.89-.51,1.14-1.26.17-1.37.17-1.71.11-.91.34-1.2.91-.46.97.11,1.66.29,1.09.34,1.14.4,1.09.8,2.12.51,1.6.57,1.6.57,2.17.29,1.31.34,1.49.11,1.26-.06,1.26-.46,2.57-.97,2.4-.74,1.03-.8.91-.91.8-2.12,1.26-1.14.4-1.26.29-2.46.06-2.29.23-1.94-.17Zm.63,3.43h-1.94l-.91-.57.17-.8.46-.11,1.37.06,3.49.06,2.46-.23,2.34-.34.97-.23,1.89-.74.86-.46,1.55-1.26.74-.8,1.37-1.89.91-2.12.57-2.06.29-2.12.06-1.14-.23-1.31-.06-1.26-.23-1.09-.29-1.03-.74-2.06-.29-1.03-.63-2.06-.34-.97-.74-2.17-.23-1.2.34-1.83,1.14-1.14,1.94-.11h1.03l1.49-.06.57-.97.11-1.2-.11-.57.11-.86-.06-.97-.06-.63.06-1.2-.11-1.94.17-1.37.52-.29.8.91.11,2.34v1.26l-.06,1.49v1.26l.06.97-.11,1.71-.29.91-.29.51-1.6.06h-1.26l-2.11.06-.86.69-.06.74.46,1.6.69,2.34,1.43,4.35.69,2.34.23,1.94.17,1.66-.06,1.03v1.03l-.34,2.17-.34,1.2-.63,2-1.03,1.71-.63.86-1.66,1.89-2.12,1.37-2.06.8-1.6.34-1.77.46-2,.11h-1.6l-2.17-.06Z"/>
    <path class="cls-1" d="m325.59,206.48l-1.71-.29-.57-1.09v-2.86l-.06-2.12-.11-1.77-.11-1.54.06-1.6v-1.43l-1.26-.74h-4.86l-1.32.46-.06,1.54v9.38l-.51,1.71-1.89.29-1.2.06-2.46-.06-2.06.06-1.43-.11h-.74l-.74-.11-.51-.57.11-1.43v-1.26l.06-2.12-.11-1.66-.06-1.72-.06-1.94v-3.55l.11-2-.06-1.54.06-1.54.11-1.14-.23-1.37.11-1.66v-1.66l.06-1.6.06-2.23-.17-2.46.17-2.23v-2.23l.06-1.77,1.6-.57,2.4-.06,1.32-.06,1.26.11,1.03-.06,1.6-.06.63-.17.8.06.74.63v2.23l.11,1.66-.06,1.77-.06,1.43.17,1.32-.23,1.89.06,2.12v1.66l.11,1.94v3.83l.17.34,1.32.11h4.69l1.26-.29.06-1.37.06-2.29v-2.29l-.06-2.17v-1.43l-.11-.63.06-1.37.06-2.12.06-2.23v-2.12l.06-.91.34-1.2.69-.29h4.92l1.77-.06h1.09l.74.11.97.4.46,1.6v.91l.06,2.23.06,1.43v.69l.06,1.2.06,1.43-.06,1.43-.06,1.83v2.29l-.06,2.29v6.8l-.06,2.34v8.23l-.11,2.06-.63,1.09-1.49.11-2.17.11h-1.09l-3.26-.06Zm-18.53,2.74l-.34-.63.34-.46,1.54-.06h5.6l1.66-.06.97-.06.8-.29.06-1.54v-3.14l.23-.91v-5.55l-.06-1.6.29-.8,1.43-.29.97.06,1.03.29.06.69-.63.57-.97-.06-.74.91v1.37l.11,1.43-.06,1.43-.11,1.37-.06,1.31.06,1.49-.06,1.37-.11,1.37-.57,1.26-.86.63-1.37.11h-7.72l-1.49-.23Zm10.64-22.41l-.06-1.26v-2.17l.06-1.14v-10.63l.63-1.37.8.97.11,1.77v1.26l-.17.97.11.86.06.91v1.2l-.17,1.03.06,1.49.06.91-.11,2v2l-.23,1.31-.57.23-.57-.34Zm7.6,22.64l.06-.57.34-.46,1.26-.06,2.23-.06h4.69l.97-.11,1.26-.74.06-1.54.06-1.72.23-1.2v-2.74l.06-1.26v-3.6l.11-1.54-.11-.97v-2.69l.17-1.71.06-1.83v-12.58l-.06-2.12.11-1.54h.86l.46,1.71.06,2.46v4.92l.06,2.46-.11,2.46.06,2.52-.06,2.4-.06,1.77.06,1.83v1.14l-.06,1.14v4.06l-.17,1.37.06,1.2-.17,1.72-.06,1.09-.11,1.14-.06,1.09-.17,1.54-.23.4-1.09.51-.97.29-2.23.11h-6.75l-.8-.29Z"/>
    <path class="cls-1" d="m353.61,206.31l-.29-.91-.06-1.83v-4.75l-.17-1.54.11-.91-.06-.86.11-.63v-1.72l-.17-1.6.17-1.26v-1.14l-.06-1.66v-1.14l.06-1.03-.11-.97-.11-1.66.23-1.54-.06-1.72v-2.12l.06-1.43v-1.66l-.17-1.49-.34-.91-.91-.06-1.37-.06-1.2.11h-1.26l-1.77-.11-.74-1.83.23-1.54.29-.4,1.14-.11h8.29l1.66-.17,1.66.17h.97l1.43-.23h12.01l.34.23.23,1.2v.91l-.4,1.2-1.26.29h-1.94l-1.54.17h-1.14l-.8.06-.46.86-.06,1.6.06,1.94v1.26l-.23,2.52v4.52l.06,1.09v2.34l.17,2-.23,1.71.06,1.77.06,1.03-.11,1.14.11,1.03.11,1.26-.17,1.32-.06,1.09v3.14l-.06,1.83-.63,1.26-1.6.17h-3.09l-1.49.06h-4.18l-1.31-.29Zm3.72,3.54l-1.49-.4-.23-.69.74-.34,8.63-.06,2.57-.06.57-.06.23-.69v-5.15l-.06-2.46v-2l-.17-1.43v-5.32l-.06-1.2v-3.43l.11-1.89-.17-1.6.06-1.6v-5.77l-.23-1.14.46-1.31,1.43-.34h3.43l1.14-.06,1.26-.97v-1.66l.23-.97.63-.06.57,1.03v1.09l-.06,1.03-.29,1.31-.4.46-1.03.06-1.6.11-1.6.06h-1.6l-.97.29v6.75l.17,1.2.06,1.03v1.03l-.11,1.83.11,1.72v11.44l.06,1.14v2.23l.06,1.94.06,1.49-.06,1.14v.8l.06.8-1.43.57-1.14.06h-6.92l-1.49.11-1.54-.06Z"/>
    <path class="cls-1" d="m402.45,207.17h-2.12l-1.32-.46-.57-1.31-.4-1.03-.91-2.23-.63-1.6-1.54-.46h-1.32l-1.77.17h-2.63l-2.69.06h-1.03l-1.2.23-.34,1.14-.4.91-.69,1.89-.4.97-.69,1.14-1.14.11-.91.17-.97-.11-.4-.34.17-1.09.57-1.89.34-.97.34-1.03.74-2,.69-1.83.69-2.12.4-1.2.46-1.2.74-2.34.4-1.14.29-1.14.4-1.14.57-1.89.74-1.89.4-1.14.34-1.14.4-1.2.34-1.14.8-2.23,1.26-3.32.74-2.17.74-1.66.57-1.37.74-.91,1.14.29.8,1.49.86,1.71.97,2.4.51,1.14.51,1.2,1.09,2.17.51,1.09,1.09,2.06.46,1.09.86,1.94.69,1.77.86,1.83.51,1.03.63,1.71.8,1.72.51,1.09.86,2.06.4.91.86,1.83.91,1.77.29,1.26.8,1.37.46,1.2.86,1.83v1.09l-.4.57-1.03.11-1.49.06-.86.23-1.66-.23-1.43.23-1.2-.11Zm-23.56,2.52l-.17-.69,1.26-.57,2-.11,1.31-.34.57-1.31.74-2.29.46-1.14.51-1.49.51-.17.52.46.17.46-.4,1.26-.4,1.09-.34,1.14-.8,2.17-1.14,1.43-1.89.23-1.89.17-1.03-.29Zm7.6-12.81l1.71-.06,4.46-.06,1.14-.11,1.09-.4-.51-1.2-.46-1.03-.8-1.94-.74-1.89-.46-.97-.69-1.66-.86-1.83-.57-1.26-.57.86-.34,1.03-.4,1.09-.69,2.06-.29,1.09-1.37,4.12-.29,1.09-.17,1.09h.8Zm1.14-2.12l.34-1.43.69-2.29.69-1.94.91-.46.29.91-.46,1.83-.34,1.03-.28,1.09-.46,1.49-.86.4-.51-.63Zm13.95,15.5l-.17-.51.23-.57,1.14-.23,1.66-.06h1.71l6.46-.34.97-.51-.34-1.2-.34-.97-1.37-2.92-.8-2.17-.51-1.14-.86-2.06-.4-.86-.91-1.83-.86-2-.4-1.03-.91-2.12-.97-2.12-.91-2.06-.52-.97-.46-1.03-.97-1.94-.91-1.94-1.43-3.09-.91-2.17-.52-1.14-.97-2.17-.51-1.09-.57-1.54.4-.63.91.34.74,1.6.52,1.14.46,1.09,1.03,2.23,1.54,3.43.91,1.89.69,1.49.46,1.2.8,1.54.57,1.14.97,2.29.57,1.14.52,1.14.69,1.43.57,1.37.4,1.09.46,1.03.51,1.09.91,1.94.4.97.46.91.8,2,.74,1.77.86,1.83.91,2.17.52,1.6-.8,1.09-1.94.23h-2.29l-1.77.23h-2.69l-3.14.23-1.32-.23Z"/>
    <path class="cls-1" d="m436.07,207.23l-2.63-.17-1.2-.17-1.14-.23-1.14-.34-2.23-.86-1.03-.51-1.03-.57-.97-.63-1.77-1.31-.8-.69-.69-.8-1.26-1.71-.63-.97-1.14-1.83-.46-.91-.34-.97-.69-2.34-.46-2.23v-3.89l.11-1.26.17-1.2.28-1.26.74-2.23.4-1.03,1.03-1.94.57-.97.97-1.32,1.14-1.31.86-.86,1.71-1.37.8-.57,1.83-1.09,1.09-.51,1.03-.46,1.14-.4,2.23-.69,2.57-.4,2.69-.34,1.6.17.4.4.06,1.37v2.23l.11,1.77.06.8v.97l.11,1.54-.06,1.6v.97l-.86.4-2.12.23-1.2.23-2.35.8-1.03.57-.97.74-.8.86-.86,1.2-.46,1.6-.34,2.46.11,1.09.69,2.12.57.91.69.86.86.69,1.94,1.14,1.03.34,1.14.23,1.94.29,1.32.11.46.74.06,1.83.06,2.4-.06,2.17v3.37l-.17.63-1.2.63-2.52-.11Zm-.23,2.86l-3.54-.63-1.03-.23-1.6-.4-.8-.8.17-.63,1.32.11,1.2.34,1.03.11,2.06.46,1.26.17,1.2.11,1.2.06,2.46-.11,1.32-1.49-.06-1.26v-7.66l.29-1.43h.57l.34.29.17,1.26v6.06l.06,2.23.06.97-.4,1.6-1.26.8-4.06.11-1.94-.06Zm-4.75-20.87l.17-1.89.4-1.2.46-.97,1.03-1.26.91-.74.97-.69,1.03-.51,2.29-.86,2.4-.29,1.43-.91-.06-1.71v-1.49l-.06-1.54-.06-2.06v-3.14l.63-.91.69.69.06,1.71.11,2.34v2.06l.06,1.77.11,1.77-.06,1.66-.97,1.03-1.31.34-1.66.06-1.03.17-.97.29-1.94.86-.86.63-.8.69-1.26,1.89-.17,2.12-.4,1.09-1.14-.97Z"/>
    <path class="cls-1" d="m464.43,206.83l-1.49-.23-1.09-.23-1.09-.46-.97-.57-1.54-1.14-1.43-1.37-.69-.91-.63-.97-.46-1.03-.8-2.12-.17-1.03-.29-2.23-.11-1.2-.11-2.34v-3.43l.06-2.12.06-2-.06-1.89.17-2.06v-1.14l.06-1.14v-5.72l.06-1.94.52-1.37,1.71-.4h7.95l1.66.06.51.63v12.06l-.06,2.06v1.83l.06,1.77v1.94l.23,1.66.06,1.71.06,1.14.4,1.89,1.6,1.43,1.89.51.97-.17.91-.63.52-.8.51-1.54.11-2.52v-2.34l.06-2.23-.11-2.12.06-2.17v-6.63l.06-1.89v-1.37l.11-1.32v-1.49l.11-.97.23-.34,1.09-.17.91-.06,1.37.46.17.86v14.92l-.06,2.12-.06,1.6v.97l.06,1.49-.23,1.43-.06,1.6-.11,1.14-.17,1.09-.23,1.14-.29,1.09-.69,2.06-.34.97-.51.91-1.32,1.77-.8.86-.86.74-2.11,1.26-1.14.34-1.89.29-1.32.17-1.03-.17Zm3.83-14.18l-.17-.86v-.91l-.06-1.2-.06-1.03.17-1.94-.06-1.03v-5.03l.06-.97v-3.37l-.06-1.26v-1.2l-.06-1.83v-1.14l-.17-.8.34-.4.8.06.46,1.43v1.09l.06,1.03v7.78l-.06,1.09v8.81l-.06,1.6-.63.4-.52-.29Zm1.37,16.41l.11-.51,1.14-.51.91-.4.86-.51,1.77-1.43,1.43-1.49,1.03-1.6.57-.97.51-1.03.4-1.03.46-1.66.4-1.49.34-2.17.17-2.46.17-2.12-.17-1.6.06-1.14.06-.74.06-.57-.17-1.14v-1.77l-.06-1.6v-3.37l-.06-1.09v-5.83l.11-.51.29-.23.51.06.4.34.17,1.54v3.54l-.11,1.6.11,1.66-.06,1.37.17.91-.11.57.17,1.31-.06,2.29.06,1.14v5.78l-.17,1.54-.11.97-.29,1.77-.29,1.26-.69,2.4-1.09,2.34-.69,1.14-1.09,1.71-1.14,1.26-.8.69-1.77,1.26-.97.57-1.03.4-1.2.11-.34-.57Z"/>
    <path class="cls-1" d="m492.45,206.2l-.4-1.66v-6.69l-.17-1.09.17-.97v-1.14l.06-1.43-.06-1.49.06-1.77-.06-2.06v-6.06l.06-1.09v-3.32l.06-2.29-.06-2.29.06-1.83-.06-1.2.06-1.2.4-.8h1.14l1.6-.11,1.2-.06,1.6.06,2.12-.11h1.03l1.49.06h.91l.63.06.4.29.34,1.54v7.03l.17,1.14-.11.46.06.91-.11,1.83v15.15l.11,2.12.11,1.89.06,1.37,1.09.29h1.09l2.17-.06h2.23l1.71-.06.97.11.51,1.54-.06,2.12-.57.57h-1.2l-2.06.06h-5.38l-1.54.29-1.26-.06-1.54-.11-1.32.11-1.03.06h-2.97l-2.63.11-1.09-.23Zm3.66,3.72l-1.31-.29-.06-.46.69-.63h1.2l2.69-.11h3.66l1.89-.06h1.71l1.66-.17h1.66l4.52-.06,1.77-.06.46-1.09v-3.2l.63-1.32.91,1.66-.06,2.29.06.91-.23,1.26-.74.57-1.66.34h-1.03l-6.69.29-1.09-.06h-3.32l-3.2.06-.97.06-2.12.17-1.03-.11Zm11.26-10.75v-5.03l.06-1.14-.06-2.46.11-2.06v-2.97l-.11-1.6.06-1.6v-3.2l.11-1.32-.11-1.43v-4.8l.51-.8.86.11.17,1.09-.17,2.12.23,2.17-.11,1.54-.11,1.32.17,1.31-.06.8.06,1.09-.06,1.54v1.14l.06,1.77v4.75l-.06,1.49-.06,1.37v1.71l-.06,1.09v1.09l-.57,1.6-.86-.69Z"/>
    <path class="cls-1" d="m547.86,207.17h-2.12l-1.32-.46-.57-1.31-.4-1.03-.91-2.23-.63-1.6-1.54-.46h-1.32l-1.77.17h-2.63l-2.69.06h-1.03l-1.2.23-.34,1.14-.4.91-.69,1.89-.4.97-.69,1.14-1.14.11-.91.17-.97-.11-.4-.34.17-1.09.57-1.89.34-.97.34-1.03.74-2,.69-1.83.69-2.12.4-1.2.46-1.2.74-2.34.4-1.14.29-1.14.4-1.14.57-1.89.74-1.89.4-1.14.34-1.14.4-1.2.34-1.14.8-2.23,1.26-3.32.74-2.17.74-1.66.57-1.37.74-.91,1.14.29.8,1.49.86,1.71.97,2.4.51,1.14.52,1.2,1.09,2.17.51,1.09,1.09,2.06.46,1.09.86,1.94.69,1.77.86,1.83.51,1.03.63,1.71.8,1.72.51,1.09.86,2.06.4.91.86,1.83.91,1.77.29,1.26.8,1.37.46,1.2.86,1.83v1.09l-.4.57-1.03.11-1.49.06-.86.23-1.66-.23-1.43.23-1.2-.11Zm-23.56,2.52l-.17-.69,1.26-.57,2-.11,1.32-.34.57-1.31.74-2.29.46-1.14.51-1.49.52-.17.51.46.17.46-.4,1.26-.4,1.09-.34,1.14-.8,2.17-1.14,1.43-1.89.23-1.89.17-1.03-.29Zm7.6-12.81l1.71-.06,4.46-.06,1.14-.11,1.09-.4-.51-1.2-.46-1.03-.8-1.94-.74-1.89-.46-.97-.69-1.66-.86-1.83-.57-1.26-.57.86-.34,1.03-.4,1.09-.69,2.06-.29,1.09-1.37,4.12-.29,1.09-.17,1.09h.8Zm1.14-2.12l.34-1.43.69-2.29.69-1.94.91-.46.29.91-.46,1.83-.34,1.03-.29,1.09-.46,1.49-.86.4-.51-.63Zm13.95,15.5l-.17-.51.23-.57,1.14-.23,1.66-.06h1.71l6.46-.34.97-.51-.34-1.2-.34-.97-1.37-2.92-.8-2.17-.51-1.14-.86-2.06-.4-.86-.91-1.83-.86-2-.4-1.03-.91-2.12-.97-2.12-.91-2.06-.51-.97-.46-1.03-.97-1.94-.91-1.94-1.43-3.09-.91-2.17-.52-1.14-.97-2.17-.51-1.09-.57-1.54.4-.63.91.34.74,1.6.52,1.14.46,1.09,1.03,2.23,1.55,3.43.91,1.89.69,1.49.46,1.2.8,1.54.57,1.14.97,2.29.57,1.14.52,1.14.69,1.43.57,1.37.4,1.09.46,1.03.52,1.09.91,1.94.4.97.46.91.8,2,.74,1.77.86,1.83.91,2.17.52,1.6-.8,1.09-1.94.23h-2.29l-1.77.23h-2.69l-3.14.23-1.32-.23Z"/>
    <path class="cls-1" d="m567.36,206.37l-.34-1.72v-26.3l.06-1.66.11-.8-.11-.97.11-2.12.06-1.2v-1.26l.06-1.89,1.14-.86,4.29-.11,2.35-.23h2.97l2.17.11,2.23.17,2.34.4,2.17.46,1.03.34,1.03.4,1.03.46.91.57,1.71,1.37.74.8.57.91.51.97.4,1.03.46,2.06.11,1.09.06,2.34-.17,1.2-.29,1.2-1.03,2.17-.57,1.03-.74.97-.74.86-.91.8-1.89,1.31-.97.46-1.09.34-1.77.51-.69.34.74.91.69.8,1.49,1.6,6.97,7.43,1.77,1.77.8,1.43-1.31.57-1.09.06h-1.14l-1.54-.4-1.2-1.14-2.34-2.46-.74-.86-.8-.8-1.55-1.77-2.46-2.63-.86-.86-1.26-1.31-.63-.63-.29.91v1.03l-.06,1.03v7.72l-.17,1.72-.69.4h-3.83l-1.14.11-1.71.11-2.57.06-1.32.06-1.09-.46Zm2.63,3.54l-.11-.57.46-.46.57-.17.52.11,1.66.06,2.06-.23h1.66l1.43.06,1.66-.11,1.49-.06.4-1.26.06-1.2v-1.14l-.06-2.23.06-1.14-.06-1.09-.06-1.37.86-.4.57.74.06,1.49.06,1.2-.06,2.06v1.66l.11,1.31-.23,1.89-1.66.97h-2.06l-2.29.17h-2l-1.89.06h-2l-1.2-.34Zm12.69-21.56l2.29-.34,1.2-.34,1.14-.51,1.03-.63,1.2-.86.8-1.14.57-1.03.46-1.14.28-1.14.17-1.89v-1.2l-.46-1.6-.52-1.09-1.54-1.89-.97-.69-1.09-.63-2.17-.63-.97-.11h-1.03l-1.94.06-.91.4-.06,1.54v4.46l-.11,1.26-.11,1.09.06,1.2v1.37l-.06,1.83v2.23l.29,1.43,1.49.06.97-.06Zm-.57-3.83l-.06-1.83v-8.41l.23-.63.51-.11.4.29.23.34v7.09l.11,2.57-.63,1.31-.8-.63Zm12.18,24.3l-.06-.57.17-.51.8-.11,2.06-.06,1.77-.23,1.03-.06.11-.74-2.12-2.12-2.46-2.63-1.43-1.37-1.14-1.09-1.26-1.43-.74-.8-2.29-2.29-.74-1.26.52-1.2,2.12-.91,1.54-.97.91-.8,1.2-1.14.69-.86.63-.8.91-1.72.52-1.26.57-2.4v-3.49l-.17-1.14-.46-1.83-.74-1.43-.8-1.6-.57-.86-1.03-1.43.4-.86,1.49.97.74,1.03.69,1.03,1.03,2.29.34,1.49.34,1.14.11.97.06,1.66.23.91-.23,1.49-.52,2.12-.29.97-.4.97-.4.91-.69,1.31-1.14,1.14-1.54,1.6-1.43,1.09-.8.51-1.49.74-.17.97,1.2,1.2.69.74,1.54,1.54,2.17,2.29,3.03,2.92,1.54,1.71.86.91.8.91,1.09,1.09-.06.74-.86.4h-1.6l-1.09.11-1.14.06-1.09.11-1.77.06-.86.06-.34-.23Z"/>
    <path class="cls-1" d="m216.32,287.48l-1.09-.17-1.32.17-1.2-.23h-1.26l-1.26-.4-.4-1.54-.06-1.2.06-1.94.17-1.54-.06-1.32-.06-.97v-.97l-.06-.74.11-1.03-.11-1.37.11-.97-.11-1.31.11-1.72-.06-1.26.17-.74v-14.98l-.06-2.17-.23-1.43.8-.97,1.77-.11h9.03l1.66.06,1.31-.06h1.37l2-.06,1.2.06h1.89l1.03.17.57.51.23,1.26-.4,1.54-.91.51-.91-.17-1.49.17-1.6-.06-1.6.06h-2.29l-.46.4v3.49l-.06,1.03v3.09l-.23,1.77v5.95l1.37.4,1.26-.06h3.83l1.66.23.69,1.26.06,1.09-.52,1.43-.8.23-.8-.06h-6.4l-.29.29-.06,1.43v8.63l1.09.29,1.03.06h5.2l1.66.51.17,1.71v1.32l-.46.34-1.14-.11h-.97l-1.55.17-1.14.06-.91-.11-.8.11-1.26-.06h-1.49l-.74.06-1.14-.11-1.03.06-1.03.11-1.83-.06Zm2.63,3.37h-.91l-1.49-.11h-2.06l-1.43-.46.17-.74.74-.34h1.43l2.17.17h7.03l1.94-.06h1.6l1.6-.06,1.2-.06.74.17,1.2-.23,1.09-.63.11-1.31-.11-1.31.23-1.03.4-.29.57.46.34,1.77-.06,1.49.06.57-.52.91-1.6.86-1.32.11h-8.29l-1.89.06-1.66.17-1.32-.11Zm5.83-24.24l-.17-.29-.06-1.43.23-1.32-.11-1.26.11-2.29.17-1.94-.06-1.49-.06-1.26.34-.86,1.09-.29,1.49.06,1.89-.11h2.23l1.6-.06.4-.57.06-1.49.34-1.54.63-.11.46,1.83.11,2.06-.91.91-1.55.34-3.89.17-1.89.06-1.03.51.17,1.54v1.14l-.17,1.89-.06,1.32v1.26l-.06,1.14-.06,1.37-.74.86-.52-.17Zm-.06,13.84v-1.49l-.11-1.49v-1.37l-.06-.86.34-.51,1.43-.17h3.2l1.2.06h1.6l.51-.34.06-1.77-.06-2,.69-.63.69.51.11,1.54.06,2-.23,1.03-1.37,1.09-1.2.11-1.6-.11-1.26-.06h-1.26l-1.32.4v2.46l-.06,1.32-.06,1.14-.97.4-.34-1.26Z"/>
    <path class="cls-1" d="m252.8,287.71h-1.03l-.97-.06-1.77.06-1.89.17-1.49-.17-.4-.29-.06-1.26v-2.23l.06-1.09v-4.46l-.06-1.26v-1.2l.11-1.66.06-.63v-1.03l.06-1.54v-6.75l-.06-1.14.06-1.03-.17-.97.06-1.49.11-1.89v-2.06l.06-1.14v-5.83l.06-2.12,1.14-.91,1.43,1.2.91.8,1.77,1.6,1.77,1.66,2.46,2.52.8.86.86.8,3.43,3.14.69.69,1.6,1.54.91.86.97.8,1.6.4,7.55-7.03,2.86-2.86,1.83-1.72,3.37-3.32,1.77-1.54,1.66.29.11,1.83-.06,2.12.11,2,.06,1.6.06,1.49-.11.8.11,1.26v10.52l-.06,2.46-.11,1.2.06,2,.11,1.77-.17,1.89v1.6l.06,1.54-.06,1.83.17,2-.06,1.09-.29,1.37-1.37.29-9.15.06-1.43-.23-.63-1.54v-5.55l.06-1.14v-5.09l.06-1.03v-1.03l.17-1.66v-6.8l-.97.34-1.77,1.54-1.66,1.49-1.6,1.6-1.43.57-.86-.46-4-4-1.26-1.14-.74,1.03v2.12l-.11.86.06.69.06,1.2-.06,1.14.11,1.2v1.43l-.17.91.17,1.14v2.63l-.11.86.11.74-.17,1.09.06,1.37-.11,1.37.06,1.32v2.86l-2.06.97h-1.14l-2.17-.23Zm-3.89,3.37l-.69-.29.11-.57.29-.4,3.54-.23,1.26.11,1.2-.17,1.83.06,2.74-.06,1.49-.51.06-1.54v-14.58l-.17-1.14.06-.8.06-.69.57-.51.69.29.17,1.66v6.06l.06,1.26v10.29l-.57,1.14-1.77.51-1.2.11h-2.23l-1.94.06h-3.89l-1.66-.06Zm34.71.06l-5.49.11-1.14-.23-.4-.8.51-.4,2.8-.06,2.23.06,1.03-.06,2.12.06,1.77-.11.74-.4-.06-.63.11-2.17.06-1.83v-8.06l.17-1.09-.17-.8.11-.8.06-1.37v-1.26l-.06-1.26.11-1.89v-3.6l-.06-1.72-.06-1.03-.06-1.2.17-1.31-.23-1.09.11-1.32-.06-1.77-.06-1.83-.11-1.09.29-.63.74-.17.46.8v1.6l.06.97.17,1.43v1.54l.06,2.06-.06,1.94v3.09l.06,1.14v7.03l-.06,2.29-.06,1.66-.17,1.26v11.84l-.52.8-1.37.23-1.72.06-1.03.23-1.03-.23Z"/>
    <path class="cls-1" d="m301.18,286.79l-1.03-.69-.06-1.77v-1.03l.06-2.23v-4.57l.06-2.34v-9.95l.06-1.26.11-1.77.06-1.26v-1.2l-.06-1.26v-2.4l.06-1.2v-4.35l.17-.97.51-.34,1.55-.06h4.29l.97-.06,1.26-.06.63.06,1.66-.11h1.2l2,.23h2.12l2.4.23,1.14.29,1.09.4,1.66.8,1.43,1.09.91.74.74.86.74.91.63.91,1.03,2.29.57,2.63.11,2.34-.11.97-.23.97-.86,2.12-1.37,1.94-.74.86-.86.74-.86.69-1.77,1.14-1.89.86-1.03.29-1.03.34-2,.4-.97.17-1.54.06-.63.69v1.09l-.17,1.09-.06,1.43v7.03l-.17,1.54-.57.57-1.54.23h-8l-1.66-.11Zm2.4,3.66l-.46-.23-.17-.17.29-.57.52-.4h1.94l4.06-.06,1.03.11.91-.11h1.83l.97-.06.97-1.26-.06-.91-.17-1.94.17-1.83v-1.66l.06-1.89v-2.23l.17-1.89,1.54-.91,2.23-.46,1.14-.29,1.89-.69,2.52-1.31.8-.63,1.26-1.14.69-.69.74-.97,1.14-1.72.97-2.17.34-2,.11-1.66-.06-1.72-.46-1.94-.91-2.29-.57-1.09-.69-.97-1.71-1.89-.86-1.2.46-.46h.8l1.14,1.03.97,1.03.69,1.09.57.91.57.86.46.97.52,1.49.28,1.03.23.74v2.69l-.17,2.34-.23,1.09-.86,2.23-.57,1.09-.69,1.03-.69.97-2.34,2.34-.86.69-1.94,1.09-1.03.46-2.06.8-1.09.29-2.06.4-.86.74v1.09l-.06,1.2-.11,1.54v7.55l-.17,1.54-.51.69-1.49.17-3.43.06h-1.14l-2.23.11-1.83.11h-1.43l-1.03-.17Zm12.01-21.04l2.46-.51,2.4-.91,1.03-.57.97-.69.86-.86,1.32-2.23.57-2.52v-1.26l-.11-1.2-.57-1.83-1.03-1.49-.69-.8-1.55-1.43-.86-.51-2-.63-1.09-.17-1.09-.11h-1.6l-.97.06-.29,1.31v3.43l-.17,2.06.11,1.43-.06,1.14v2.46l-.06.69.06.51.11,1.54v2.17l1.14.97,1.09-.06Zm-.06-3.2l-.06-1.43v-6.06l-.11-1.77.06-1.71v-1.09l.4-.46h.69l.34,1.49v10.06l-.23,1.26-.69.23-.4-.51Z"/>
    <path class="cls-1" d="m357.44,287.88l-1.14-.23-2.12-.57-1.09-.34-.97-.4-1.03-.46-1.6-.86-.74-.51-1.14-.74-.86-.74-.86-.8-1.54-1.6-.69-.8-.63-.86-.57-.91-1.03-1.94-.91-2.17-.63-2.29-.29-2.06-.23-1.66v-1.77l.17-1.94.17-.97.57-2,.34-1.09.4-1.03.97-1.89.57-.91.63-.91.69-.8.69-.86,1.71-1.6,1.09-.8,2.12-1.37,2.06-1.03.97-.4,1.03-.34,2.06-.57,2-.4,1.03-.11h3.77l1.14.11,1.09.23,2.17.57.97.34.97.4,2,.97.97.57,1.31.91,1.03,1.03,1.83,1.66,1.49,2.06.57.86.51.91.51.97.97,2.06.4,1.14.63,2.46.17,2.52v1.2l-.23,2.34-.17,1.09-.63,2.29-.4,1.14-.51,1.09-.57,1.09-.63,1.03-.69,1.03-.97,1.37-2.92,2.97-.8.69-1.71,1.26-2,1.09-1.09.46-1.14.34-1.14.29-2.34.23-2.34.11h-2.35l-1.09-.11Zm3.66-12.64l.97-.17,2.06-.86,1.03-.63.91-.8,1.43-2.06.51-1.2.34-2.52-.11-1.2-.29-1.26-.46-1.14-1.09-1.83-1.54-1.2-.97-.51-.97-.34-1.32-.17-1.43-.17-1.2.06-1.43.51-1.49.63-1.03.74-1.54,1.83-.57.91-.4,1.03-.23,1.09.06,2.46.29,1.26.91,2.12.51.8,1.66,1.37,1.03.57,1.09.46,1.14.23h2.12Zm-5.49-4.8l-.69-1.77.06-2.34.29-.97.46-.91,1.49-1.72,1.83-1.2.91-.29,1.31.34.17.63-.69.4-1.6.51-.97.63-.8.8-.57.97-.46,2.4.29,1.72-.23.86-.8-.06Zm4.12,20.7l-.46-.74.4-.51.29-.11.97.11h2.12l1.49-.29,1.43-.06.97-.17,1.14-.46,1.26-.29.97-.4,1.03-.4,1.89-.97.91-.46,1.09-.91,1.14-.74.8-.69.69-.74.69-.8,1.14-1.49,1.09-1.77.91-2.06.4-.97.74-1.83.28-.91.29-1.6.34-1.26-.11-.8.17-1.6-.23-2.46-.17-2.06-.57-2.12-.29-1.37-.74-1.43-.91-2.29-1.26-1.94-.69-.97-1.54-1.89-.8-1.43.4-.63.69.17.91,1.09.74.91.69.86.69.91,1.26,2,.57,1.09.86,2,.69,1.94.57,2.17.4,2.12.17,2.29-.06,2.52v1.49l-.46,1.49-.74,2.63-.91,2.52-1.03,2.23-.57.97-.63.91-1.31,1.72-.63.74-.74.69-1.66,1.37-.91.69-1.43,1.03-1.66.8-1.09.46-1.14.46-1.14.4-2.35.63-1.66.11-.8.23h-2.69l-1.89-.11Z"/>
    <path class="cls-1" d="m394.1,286.85l-.34-1.72v-26.3l.06-1.66.11-.8-.11-.97.11-2.12.06-1.2v-1.26l.06-1.89,1.14-.86,4.29-.11,2.35-.23h2.97l2.17.11,2.23.17,2.34.4,2.17.46,1.03.34,1.03.4,1.03.46.91.57,1.71,1.37.74.8.57.91.51.97.4,1.03.46,2.06.11,1.09.06,2.34-.17,1.2-.29,1.2-1.03,2.17-.57,1.03-.74.97-.74.86-.91.8-1.89,1.31-.97.46-1.09.34-1.77.51-.69.34.74.91.69.8,1.49,1.6,6.98,7.43,1.77,1.77.8,1.43-1.31.57-1.09.06h-1.14l-1.54-.4-1.2-1.14-2.34-2.46-.74-.86-.8-.8-1.54-1.77-2.46-2.63-.86-.86-1.26-1.31-.63-.63-.28.91v1.03l-.06,1.03v7.72l-.17,1.72-.69.4h-3.83l-1.14.11-1.71.11-2.57.06-1.32.06-1.09-.46Zm2.63,3.54l-.11-.57.46-.46.57-.17.52.11,1.66.06,2.06-.23h1.66l1.43.06,1.66-.11,1.49-.06.4-1.26.06-1.2v-1.14l-.06-2.23.06-1.14-.06-1.09-.06-1.37.86-.4.57.74.06,1.49.06,1.2-.06,2.06v1.66l.11,1.31-.23,1.89-1.66.97h-2.06l-2.29.17h-2l-1.89.06h-2l-1.2-.34Zm12.69-21.56l2.29-.34,1.2-.34,1.14-.51,1.03-.63,1.2-.86.8-1.14.57-1.03.46-1.14.29-1.14.17-1.89v-1.2l-.46-1.6-.51-1.09-1.54-1.89-.97-.69-1.09-.63-2.17-.63-.97-.11h-1.03l-1.94.06-.91.4-.06,1.54v4.46l-.11,1.26-.11,1.09.06,1.2v1.37l-.06,1.83v2.23l.28,1.43,1.49.06.97-.06Zm-.57-3.83l-.06-1.83v-8.41l.23-.63.51-.11.4.29.23.34v7.09l.11,2.57-.63,1.31-.8-.63Zm12.18,24.3l-.06-.57.17-.51.8-.11,2.06-.06,1.77-.23,1.03-.06.11-.74-2.12-2.12-2.46-2.63-1.43-1.37-1.14-1.09-1.26-1.43-.74-.8-2.29-2.29-.74-1.26.52-1.2,2.12-.91,1.54-.97.91-.8,1.2-1.14.69-.86.63-.8.91-1.72.52-1.26.57-2.4v-3.49l-.17-1.14-.46-1.83-.74-1.43-.8-1.6-.57-.86-1.03-1.43.4-.86,1.49.97.74,1.03.69,1.03,1.03,2.29.34,1.49.34,1.14.11.97.06,1.66.23.91-.23,1.49-.52,2.12-.28.97-.4.97-.4.91-.69,1.31-1.14,1.14-1.54,1.6-1.43,1.09-.8.51-1.49.74-.17.97,1.2,1.2.69.74,1.54,1.54,2.17,2.29,3.03,2.92,1.54,1.71.86.91.8.91,1.09,1.09-.06.74-.86.4h-1.6l-1.09.11-1.14.06-1.09.11-1.77.06-.86.06-.34-.23Z"/>
    <path class="cls-1" d="m436.18,286.79l-.46-.97v-1.49l-.11-3.32-.11-1.89v-2.23l.11-1.49v-2.34l-.11-1.03.17-.86-.11-.63.17-1.14v-9.83l.06-1.14v-3.03l.17-.86v-1.32l.06-1.26-.06-1.31-.11-1.31.23-.57.63-.4.86.17,2-.17h1.14l1.71.06.97-.06,1.49.17,2.12.06,1.26.69v1.43l.06,1.43-.06,1.49.06,1.49-.06,1.6-.06,1.72.11,1.77-.11,1.2.06,1.14-.06,1.6.06,1.89-.06,1.43.06,1.2-.11,1.83v5.6l.06,1.77.06,1.6-.06,1.26.11.69-.11,1.09.11,1.37-.11.74.17.63-.11.8-.17.74-1.26.23h-8l-1.72.06-.91-.29Zm3.83,3.83l-1.54-.74.34-.69,1.03-.06,2.92.06h6.46l1.31-.34.06-1.54.17-1.72-.17-1.43-.06-1.77.06-1.89.11-2,.06-2.06v-23.79l.29-.97.63-.06.46.46v1.37l.06,1.14v16.81l.06,2.17-.06,1.14-.06,2.17v1.14l.06,2.17-.06,1.03v5.37l-.06,2.17-.74,1.37-.91.4h-1.89l-2.17.23-1.54-.11-1.2.06h-1.26l-.8.06-1.55-.17Z"/>
    <path class="cls-1" d="m473.52,287.31l-1.49-.23-1.09-.23-1.09-.46-.97-.57-1.54-1.14-1.43-1.37-.69-.91-.63-.97-.46-1.03-.8-2.12-.17-1.03-.28-2.23-.11-1.2-.11-2.34v-3.43l.06-2.12.06-2-.06-1.89.17-2.06v-1.14l.06-1.14v-5.72l.06-1.94.52-1.37,1.71-.4h7.95l1.66.06.51.63v12.06l-.06,2.06v1.83l.06,1.77v1.94l.23,1.66.06,1.71.06,1.14.4,1.89,1.6,1.43,1.89.51.97-.17.91-.63.52-.8.51-1.54.11-2.52v-2.34l.06-2.23-.11-2.12.06-2.17v-6.63l.06-1.89v-1.37l.11-1.32v-1.49l.11-.97.23-.34,1.09-.17.91-.06,1.37.46.17.86v14.92l-.06,2.12-.06,1.6v.97l.06,1.49-.23,1.43-.06,1.6-.11,1.14-.17,1.09-.23,1.14-.29,1.09-.69,2.06-.34.97-.51.91-1.32,1.77-.8.86-.86.74-2.12,1.26-1.14.34-1.89.29-1.32.17-1.03-.17Zm3.83-14.18l-.17-.86v-.91l-.06-1.2-.06-1.03.17-1.94-.06-1.03v-5.03l.06-.97v-3.37l-.06-1.26v-1.2l-.06-1.83v-1.14l-.17-.8.34-.4.8.06.46,1.43v1.09l.06,1.03v7.78l-.06,1.09v8.81l-.06,1.6-.63.4-.52-.29Zm1.37,16.41l.11-.51,1.14-.51.91-.4.86-.51,1.77-1.43,1.43-1.49,1.03-1.6.57-.97.51-1.03.4-1.03.46-1.66.4-1.49.34-2.17.17-2.46.17-2.12-.17-1.6.06-1.14.06-.74.06-.57-.17-1.14v-1.77l-.06-1.6v-3.37l-.06-1.09v-5.83l.11-.51.29-.23.51.06.4.34.17,1.54v3.54l-.11,1.6.11,1.66-.06,1.37.17.91-.11.57.17,1.31-.06,2.29.06,1.14v5.78l-.17,1.54-.11.97-.29,1.77-.29,1.26-.69,2.4-1.09,2.34-.69,1.14-1.09,1.71-1.14,1.26-.8.69-1.77,1.26-.97.57-1.03.4-1.2.11-.34-.57Z"/>
    <path class="cls-1" d="m508.57,287.71h-1.03l-.97-.06-1.77.06-1.89.17-1.49-.17-.4-.29-.06-1.26v-2.23l.06-1.09v-4.46l-.06-1.26v-1.2l.11-1.66.06-.63v-1.03l.06-1.54v-6.75l-.06-1.14.06-1.03-.17-.97.06-1.49.11-1.89v-2.06l.06-1.14v-5.83l.06-2.12,1.14-.91,1.43,1.2.91.8,1.77,1.6,1.77,1.66,2.46,2.52.8.86.86.8,3.43,3.14.69.69,1.6,1.54.91.86.97.8,1.6.4,7.55-7.03,2.86-2.86,1.83-1.72,3.37-3.32,1.77-1.54,1.66.29.11,1.83-.06,2.12.11,2,.06,1.6.06,1.49-.11.8.11,1.26v10.52l-.06,2.46-.11,1.2.06,2,.11,1.77-.17,1.89v1.6l.06,1.54-.06,1.83.17,2-.06,1.09-.29,1.37-1.37.29-9.15.06-1.43-.23-.63-1.54v-5.55l.06-1.14v-5.09l.06-1.03v-1.03l.17-1.66v-6.8l-.97.34-1.77,1.54-1.66,1.49-1.6,1.6-1.43.57-.86-.46-4-4-1.26-1.14-.74,1.03v2.12l-.11.86.06.69.06,1.2-.06,1.14.11,1.2v1.43l-.17.91.17,1.14v2.63l-.11.86.11.74-.17,1.09.06,1.37-.11,1.37.06,1.32v2.86l-2.06.97h-1.14l-2.17-.23Zm-3.89,3.37l-.69-.29.11-.57.29-.4,3.55-.23,1.26.11,1.2-.17,1.83.06,2.74-.06,1.49-.51.06-1.54v-14.58l-.17-1.14.06-.8.06-.69.57-.51.69.29.17,1.66v6.06l.06,1.26v10.29l-.57,1.14-1.77.51-1.2.11h-2.23l-1.94.06h-3.89l-1.66-.06Zm34.71.06l-5.49.11-1.14-.23-.4-.8.51-.4,2.8-.06,2.23.06,1.03-.06,2.12.06,1.77-.11.74-.4-.06-.63.11-2.17.06-1.83v-8.06l.17-1.09-.17-.8.11-.8.06-1.37v-1.26l-.06-1.26.11-1.89v-3.6l-.06-1.72-.06-1.03-.06-1.2.17-1.31-.23-1.09.11-1.32-.06-1.77-.06-1.83-.11-1.09.29-.63.74-.17.46.8v1.6l.06.97.17,1.43v1.54l.06,2.06-.06,1.94v3.09l.06,1.14v7.03l-.06,2.29-.06,1.66-.17,1.26v11.84l-.51.8-1.37.23-1.71.06-1.03.23-1.03-.23Z"/>
  </g>
</svg>